# xmcd CD database file
#
# Track frame offsets:
#	150
#	11706
#	78070
#	164012
#	241983
#
# Disc length: 4219 seconds
#
# Revision: 0
# Processed by: cddbd v1.5.1PL2 Copyright (c) Steve Scherf et al.
# Submitted via: CDex 1.50
#
DISCID=31107905
DTITLE=Summer McStravick - Flowdreaming for Enhanced Creativity and Success
DYEAR=2005
DGENRE=New Age
TTITLE0=Introduction
TTITLE1=Positive Flow
TTITLE2=Attracting New Creative Opportunities
TTITLE3=Enhancing Your Creativity and Moving Past Blocks
TTITLE4=Turning Creative Projects into Successes
EXTD=YEAR: 2005
EXTT0=
EXTT1=
EXTT2=
EXTT3=
EXTT4=
PLAYORDER=
